<svg width="12" height="12" viewBox="0 0 12 12" fill="none" xmlns="http://www.w3.org/2000/svg">
<path fill-rule="evenodd" clip-rule="evenodd" d="M9.54545 5.45455C9.54545 5.10511 9.27273 4.90909 9.27273 4.90909L7.09091 2.72727C7.09091 2.72727 6.85227 2.45455 6.54545 2.45455C6.23864 2.45455 6 2.72727 6 2.72727L0.545455 8.18182C0.545455 8.18182 0.246913 8.48504 0.136364 8.72727C0.0018747 9.02196 0 9.54545 0 9.54545V11.4545C0 11.4545 1.12653e-05 11.7273 0.136364 11.8636C0.272716 12 0.545455 12 0.545455 12H2.45455C2.45455 12 2.97804 11.9981 3.27273 11.8636C3.51496 11.7531 3.81818 11.4545 3.81818 11.4545L9.27273 6C9.27273 6 9.54545 5.80398 9.54545 5.45455ZM0.954546 9C1.06509 8.75777 1.36364 8.45455 1.36364 8.45455L6.27273 3.54545C6.27273 3.54545 6.35795 3.40909 6.54545 3.40909C6.73295 3.40909 6.81818 3.54545 6.81818 3.54545L7.36364 4.09091C7.36364 4.09091 7.5 4.18466 7.5 4.36364C7.5 4.54261 7.36364 4.63636 7.36364 4.63636L1.36364 10.6364C1.36364 10.6364 1.09091 10.9091 0.954546 10.7727C0.818182 10.6364 0.818182 10.5 0.818182 10.5V9.54545C0.818182 9.54545 0.820057 9.29469 0.954546 9Z" fill="#22252A"/>
<path d="M7.36364 2.45455L9.54545 4.63636C9.54545 4.63636 9.75852 4.90909 10.0909 4.90909C10.4233 4.90909 10.6364 4.63636 10.6364 4.63636L11.7273 3.54545C11.7273 3.54545 12 3.34943 12 3C12 2.65057 11.7273 2.45455 11.7273 2.45455L9.54545 0.272727C9.54545 0.272727 9.32386 0 9 0C8.67614 0 8.45455 0.272727 8.45455 0.272727L7.36364 1.36364C7.36364 1.36364 7.09091 1.58523 7.09091 1.90909C7.09091 2.23295 7.36364 2.45455 7.36364 2.45455Z" fill="#22252A"/>
</svg>
