<svg width="14" height="13" viewBox="0 0 14 13" fill="none" xmlns="http://www.w3.org/2000/svg">
<path fill-rule="evenodd" clip-rule="evenodd" d="M5.78033 0.969668C6.07322 1.26256 6.07322 1.73744 5.78033 2.03033L2.81066 5H9.25C11.8733 5 14 7.12663 14 9.75V12.25C14 12.6642 13.6642 13 13.25 13C12.8358 13 12.5 12.6642 12.5 12.25V9.75C12.5 7.95507 11.0449 6.5 9.25 6.5H2.81066L5.78033 9.4697C6.07322 9.7626 6.07322 10.2374 5.78033 10.5303C5.48744 10.8232 5.01256 10.8232 4.71967 10.5303L0.469668 6.28033C0.176777 5.98744 0.176777 5.51256 0.469668 5.21967L4.71967 0.969668C5.01256 0.676777 5.48744 0.676777 5.78033 0.969668Z" fill="#22252A"/>
</svg>
