<?xml version="1.0" encoding="utf-8"?>
<!-- Svg Vector Icons : http://www.onlinewebfonts.com/icon -->
<!DOCTYPE svg PUBLIC "-//W3C//DTD SVG 1.1//EN" "http://www.w3.org/Graphics/SVG/1.1/DTD/svg11.dtd">
<svg version="1.1" xmlns="http://www.w3.org/2000/svg" xmlns:xlink="http://www.w3.org/1999/xlink" x="0px" y="0px" viewBox="0 0 256 256" enable-background="new 0 0 256 256" xml:space="preserve">
<metadata> Svg Vector Icons : http://www.onlinewebfonts.com/icon </metadata>
<g><g><g><path fill="#000000" d="M242.7,30.9l-16.3-16.1c-4.4-4.4-11.7-4.4-16.3,0l-81.3,81.3L45.9,13.3c-4.4-4.4-11.7-4.4-16.3,0L13.3,29.6c-4.4,4.4-4.4,11.7,0,16.3L96,128.6l-81.1,81.5c-4.4,4.4-4.4,11.7,0,16.3l16.3,16.3c4.4,4.4,11.7,4.4,16.3,0l81.3-81.3l81.3,81.3c4.4,4.4,11.7,4.4,16.3,0l16.3-16.3c4.4-4.4,4.4-11.7,0-16.3l-81.5-81.3l81.3-81.3C247.1,42.8,247.1,35.5,242.7,30.9z"/></g><g></g><g></g><g></g><g></g><g></g><g></g><g></g><g></g><g></g><g></g><g></g><g></g><g></g><g></g><g></g></g></g>
</svg>