<?xml version="1.0" encoding="utf-8"?>
<!-- Generator: Adobe Illustrator 27.0.1, SVG Export Plug-In . SVG Version: 6.00 Build 0)  -->
<svg version="1.1" id="Layer_1" xmlns="http://www.w3.org/2000/svg" xmlns:xlink="http://www.w3.org/1999/xlink" x="0px" y="0px"
	 viewBox="0 0 841.89 595.28" style="enable-background:new 0 0 841.89 595.28;" xml:space="preserve">
<style type="text/css">
	.st0{fill:#CECBE6;}
	.st1{fill:#6168B0;}
	.st2{fill-rule:evenodd;clip-rule:evenodd;fill:#6168B0;}
</style>
<g id="Слой_x0020_1">
	<g id="_2641602520448">
		<polygon class="st0" points="496.59,173.73 249.25,262.03 249.37,262.25 246.57,262.25 246.57,261.21 247.68,261.21 
			247.11,260.08 247.42,259.59 248,259.96 248.17,259.88 248.78,261.09 496.24,172.75 		"/>
		<path class="st0" d="M325.42,306.84l-0.02-6.36c0.2-0.82,0.41-1.65,0.61-2.47c0.37-0.91,0.73-1.82,1.1-2.73l1.34-2.25l1.64-1.89
			l0.02-0.02l1.45-1.49c0.94-0.7,1.88-1.39,2.83-2.09c10.79-4.19,21.57-8.38,32.36-12.56c1.85-0.27,3.69-0.54,5.54-0.81
			c1.56,0,3.12,0.01,4.69,0.01c1.62,0.66,3.24,1.32,4.86,1.98l3.27,3.09l3.07,1.81l3.88,0.11l-0.03,1.04l-4.15-0.12l-3.4-2
			l-3.22-3.03l-4.51-1.83l-4.38-0.01l-5.37,0.79l-32.11,12.47l-2.64,1.95l-1.38,1.42l-1.56,1.81l-1.26,2.12l-1.04,2.59l-0.57,2.28
			l0.02,6.23L325.42,306.84L325.42,306.84z"/>
		<polygon class="st0" points="537.47,122.16 519.32,103.02 472.84,146.55 496.98,172.07 496.83,173.31 495.79,173.18 
			495.89,172.42 471.37,146.5 519.36,101.55 538.22,121.44 		"/>
		<path class="st0" d="M246.03,261.58l1.39-2.14l245.16-87.5l-23.94-25.37c16.92-15.87,33.84-31.74,50.76-47.61
			c6.76,7.15,13.53,14.3,20.29,21.45c-0.55,0.54-1.1,1.08-1.65,1.62l-0.33,0.27l-0.65-0.81l0.29-0.24l0.89-0.87l-18.88-19.95
			l-49.25,46.19l24.32,25.77L248.1,260.31l-1.2,1.84L246.03,261.58L246.03,261.58z"/>
		<path class="st0" d="M501.7,416l0.01,0.6l261-26.01l-0.02-0.79L501.7,416L501.7,416z M500.68,417.18l-0.04-2.12
			c87.69-8.8,175.37-17.61,263.06-26.41l0.07,2.88c-87.69,8.74-175.39,17.48-263.08,26.22L500.68,417.18z"/>
		<polygon class="st0" points="554.91,374.9 554.91,393.27 552.29,393.27 552.29,374.9 553.33,374.9 553.33,392.22 553.87,392.22 
			553.87,374.9 		"/>
		<polygon class="st0" points="553.96,409.77 553.96,401.73 553.33,401.73 553.33,409.88 552.29,409.88 552.29,400.68 555,400.68 
			555,409.77 		"/>
		<path class="st0" d="M612.15,303.45l0.26-17.56h2.44l-0.4,18.09l0.36,1.6l0.82,1.98l0.93,1.7l1.33,1.58l1.43,1.18l1.41,0.89
			l1.58,0.77l0.89,0.19h13.79l1.19-0.42l1.4-0.76l1.39-1.06l1.06-1.02l1.13-1.37l0.73-1.45l0.7-1.56l0.41-1.7l0.08-1.11v-16.94h2.23
			c0,6.11,0,12.21,0,18.32l-0.31,1.25c-0.23,0.7-0.47,1.41-0.7,2.11l-0.74,1.43l-0.02,0.03l-0.87,1.44
			c-0.64,0.7-1.29,1.41-1.93,2.11l-1.2,0.89l-1.01,0.61l-1.39,0.65l-0.98,0.49l-1.22,0.28h-14.09l-1.81-0.45l-1.19-0.57l-0.03-0.02
			l-1.59-0.9l-1.26-0.96l-0.03-0.03l-1.23-1.1c-0.31-0.4-0.62-0.79-0.92-1.19c-0.39-0.64-0.79-1.28-1.18-1.93
			c-0.22-0.48-0.44-0.97-0.66-1.45l-0.48-1.41l-0.27-1.65l-0.04-0.96L612.15,303.45L612.15,303.45z M613.44,286.94l-0.25,16.51
			l0.04,0.89l0.24,1.48l0.45,1.3l0.61,1.34l1.1,1.8l0.85,1.1l1.13,1.01l1.17,0.89l1.52,0.87l1.08,0.52l1.58,0.39h13.86l0.98-0.23
			l0.88-0.44l1.32-0.62l0.94-0.57l1.08-0.8l1.79-1.95l0.8-1.32l0.7-1.37l0.65-1.95l0.28-1.12v-17.16h-0.14v15.9l0,0.04l-0.09,1.23
			c-0.15,0.62-0.29,1.24-0.44,1.86l-0.74,1.66c-0.27,0.53-0.53,1.07-0.8,1.6c-0.41,0.5-0.83,1.01-1.24,1.51
			c-0.38,0.37-0.76,0.73-1.14,1.1c-0.5,0.38-0.99,0.76-1.49,1.14c-0.52,0.28-1.04,0.57-1.56,0.85c-0.48,0.17-0.95,0.34-1.43,0.51
			h-14.06l-1.14-0.24l-1.72-0.84l-1.55-0.97l-1.54-1.27l-1.46-1.73L614.7,308c-0.29-0.7-0.58-1.39-0.87-2.09l-0.41-1.82l0.38-17.16
			L613.44,286.94L613.44,286.94z"/>
		<path class="st0" d="M613.27,276.81h0.72v-6.08l0.58-1.67c0.24-0.53,0.49-1.06,0.73-1.59l0.88-1.26l1.24-1.37l1.39-0.94
			c0.65-0.34,1.3-0.69,1.95-1.03l1.41-0.45l1.75-0.19c0.87,0.06,1.74,0.12,2.61,0.18c3.71,0.6,7.43,1.19,11.14,1.79
			c0.5,0.15,1.01,0.29,1.51,0.44l1.17,0.62l0.03,0.02l1.13,0.71l0.02,0.01l1.05,0.74c0.31,0.34,0.63,0.67,0.94,1.01l1.03,1.46
			l0.02,0.03l1,1.68l0.25,1.52l0,0.03l0.18,1.78l-1.04,0.1l-0.18-1.75l-0.22-1.32l-0.9-1.52l-0.96-1.35l-0.83-0.89l-0.96-0.68
			l-1.08-0.68l-1.07-0.56l-1.34-0.39l-11.02-1.77l-2.49-0.17l-1.56,0.17l-1.19,0.38l-1.85,0.98l-1.22,0.83l-1.13,1.24l-0.78,1.11
			l-0.69,1.49l-0.49,1.42v6.96h-1.77V276.81L613.27,276.81z"/>
		<path class="st0" d="M646.11,274.13l-0.04,3.63h0.27l0.05-3.77l-0.28-2.09l-0.79-1.97l-1.07-1.69l-1.47-1.59l-1.92-1.36l-2.87-1.2
			l-2.78-0.52l-2.54-0.41v0l-7.42-1.18l-2.15,0.06l-1.7,0.34l-1.52,0.68v0l-1.28,0.61l-1.07,1.07l-0.03,0.03l-1.21,1.04l-0.76,0.92
			l-0.74,1.54l-0.58,1.33l-0.49,1.48l0.16,5.7h0l0.05,0.86l-1.04,0.06l-0.02-0.35l-0.02,0l-0.01-0.5l0-0.01h0l-0.17-5.92l0.57-1.72
			l0.6-1.38l0.01-0.02l0.8-1.65l0.9-1.1l1.25-1.07l1.18-1.18l1.45-0.69l0.01-0.01l1.66-0.74c0.62-0.12,1.24-0.25,1.86-0.37
			l2.36-0.06l7.51,1.19h0l2.55,0.41l0.01,0l2.9,0.54c1.02,0.43,2.04,0.86,3.06,1.28l2.11,1.49c0.54,0.58,1.07,1.16,1.61,1.73
			c0.39,0.62,0.79,1.24,1.18,1.86l0.87,2.18c0.1,0.76,0.21,1.53,0.31,2.29c-0.02,1.63-0.04,3.26-0.07,4.88h-2.34l0.05-4.68
			L646.11,274.13L646.11,274.13z"/>
		<polygon class="st0" points="763.05,312.8 659.64,312.8 659.64,308.68 662.39,308.68 662.39,310.39 763.05,310.39 763.05,311.43 
			661.34,311.43 661.34,309.73 660.68,309.73 660.68,311.75 763.05,311.75 		"/>
		<polygon class="st0" points="661.34,261.46 661.34,257.04 660.85,257.04 660.85,299.81 661.34,299.81 661.34,262.99 
			662.39,262.99 662.39,300.86 659.81,300.86 659.81,255.99 662.39,255.99 662.39,261.46 		"/>
		<polygon class="st0" points="768.05,201.14 661.41,201.14 661.41,201.62 768.05,201.62 768.05,202.67 660.36,202.67 660.36,200.1 
			768.05,200.1 		"/>
		<polygon class="st0" points="768.05,177.68 743.4,177.68 743.4,176.64 768.05,176.64 		"/>
		<polygon class="st0" points="743.4,175.11 768.05,175.11 768.05,176.15 743.4,176.15 		"/>
		<polygon class="st0" points="739.22,171.69 736.79,154.72 736.16,154.82 738.86,172.08 737.83,172.24 734.97,153.96 
			737.67,153.51 740.25,171.55 		"/>
		<polygon class="st0" points="733.68,125.3 736.58,145.38 733.98,145.66 731.11,125.44 732.15,125.3 734.87,144.51 735.39,144.46 
			732.65,125.45 		"/>
		<polygon class="st1" points="74.07,367.64 74.07,482.7 73.03,482.7 73.03,367.64 		"/>
		<path class="st1" d="M319.49,383.58l48.33-0.2v2.83l-48.47,0.3l-0.46-2.93L319.49,383.58L319.49,383.58z M366.77,384.43
			l-46.68,0.19l0.13,0.85l46.54-0.29V384.43z"/>
		<polygon class="st1" points="74.87,482.7 74.87,390.03 78.51,390.03 78.51,389.25 74.87,389.25 74.87,367.64 75.92,367.64 
			75.92,388.21 79.56,388.21 79.56,391.07 75.92,391.07 75.92,482.7 		"/>
		<polygon class="st1" points="76.03,363.19 94.55,363.19 94.55,389.34 88.93,389.34 88.93,389.91 91.97,389.91 91.97,437.7 
			92.92,437.7 92.92,433.83 151.53,433.83 151.53,434.87 93.97,434.87 93.97,438.74 90.92,438.74 90.92,390.95 87.89,390.95 
			87.89,388.29 93.5,388.29 93.5,364.23 76.03,364.23 		"/>
		<polygon class="st1" points="151.53,433.83 177.61,433.83 177.61,438.15 178.38,438.15 178.38,430.35 177.48,430.35 
			177.48,433.19 95.32,433.19 95.32,363.17 155.57,363.17 155.57,364.22 96.36,364.22 96.36,432.15 176.44,432.15 176.44,429.31 
			179.42,429.31 179.42,439.19 176.57,439.19 176.57,434.87 151.53,434.87 		"/>
		<polygon class="st1" points="161.32,363.1 177.69,363.1 177.69,420.16 178.38,420.16 178.38,363.06 240.61,363.06 240.61,364.1 
			179.42,364.1 179.42,421.21 176.65,421.21 176.65,364.14 161.32,364.14 		"/>
		<polygon class="st1" points="241.59,367.64 241.5,376.49 241.58,376.49 241.61,367.33 242.65,367.33 242.62,377.53 240.44,377.53 
			240.55,367.63 		"/>
		<path class="st1" d="M246.36,366.69l13.7-0.04l-0.04,28.21l-18.34-0.01l0-7.93h-0.06l-0.02,33.74l5.75,0l0-0.37l-5.74,0
			c0-8.36,0.01-16.72,0.01-25.08l18.37,0.01c0,8.38-0.01,16.76-0.01,25.14l-2.33,0l0,0.31l6.65,0v-0.29l-4.09,0
			c0-8.39,0.01-16.77,0.01-25.16l23.94,0.01v1.04l-22.9-0.01l-0.01,23.07l4.09,0l0,2.37l-8.73,0l0-2.39l2.33,0l0.01-23.06
			l-16.29-0.01l-0.01,23l5.74,0l0,2.45l-7.83,0c0.01-11.94,0.01-23.88,0.02-35.82l2.14,0l0,7.93l16.26,0.01l0.03-26.13l-12.66,0.04
			L246.36,366.69L246.36,366.69z"/>
		<path class="st1" d="M284.25,395.3c0.27,0.81,0.62,1.81,1.02,2.95c0.98,2.8,2.25,6.4,2.96,9.08l0.02,0.08
			c0.31,1.16,0.35,1.33,0.38,3.48l0,0.04l0,0.03c-0.12,0.91-0.21,1.51-0.4,2.09c-0.19,0.59-0.46,1.13-0.94,1.91l-0.01,0.02
			c-0.86,1.26-1.65,2.21-2.55,2.98c-0.91,0.77-1.92,1.34-3.22,1.83l-0.04,0.01l-0.03,0.01c-2.84,0.65-4.34,0.64-6.29,0.62
			c-0.35,0-0.72-0.01-1.12,0v-1.04c0.4,0,0.77,0,1.12,0c1.88,0.01,3.32,0.02,6.03-0.59c1.16-0.43,2.07-0.95,2.88-1.63
			c0.82-0.7,1.56-1.59,2.36-2.77l0,0c0.42-0.68,0.66-1.16,0.82-1.66c0.16-0.51,0.24-1.06,0.36-1.88c-0.02-1.96-0.07-2.13-0.34-3.18
			l-0.02-0.08c-0.7-2.64-1.96-6.22-2.94-9c-0.42-1.2-0.79-2.26-1.03-2.96L284.25,395.3L284.25,395.3z"/>
		<path class="st1" d="M277,369.2l2.45,6.73l-2.45,1.02l-2.81-7.92v-1.3l-12.95-0.01l0.01,16.59l0.01,9.49l21.44-0.02l-2.96-8.94
			l2.22-0.73l0.16,0.5c0.27,0.81,0.94,2.74,1.8,5.19c2.12,6.03,5.33,15.18,6.04,17.86c0.26,0.98,0.26,1.12,0.26,2.19
			c0,0.29,0,0.65,0,1.12l0,0.04l0,0.03c-0.23,1.73-0.54,2.48-1.1,3.86c-0.43,1.05,0.88-2.16-0.09,0.22l-0.02,0.05l-0.03,0.05
			c-0.85,1.24-1.67,2.35-2.61,3.27c-0.95,0.94-2.02,1.68-3.33,2.17v0c-0.77,0.3-1.42,0.5-2.06,0.65c-0.64,0.15-1.25,0.25-1.94,0.34
			c-1.29,0.17-2.72,0.15-3.96,0.13c-0.38-0.01-0.74-0.01-1.07-0.01l-0.52,0c-0.01-0.78-0.02-1.56-0.02-2.33h1.04l0,0.44l0.01,0.86
			c0.18,0,0.37,0,0.56,0.01c1.2,0.02,2.6,0.03,3.82-0.12c0.66-0.09,1.24-0.18,1.83-0.32c0.59-0.14,1.2-0.33,1.92-0.61l0.01,0
			c1.16-0.43,2.11-1.1,2.97-1.94c0.86-0.85,1.64-1.89,2.44-3.07c0.61-1.5,0.16-0.38,0,0l0,0l0.07-0.16
			c0.52-1.28,0.81-1.99,1.03-3.57c0-0.45,0-0.8,0-1.09c0-0.95,0-1.07-0.22-1.92c-0.7-2.65-3.9-11.77-6.02-17.79
			c-0.73-2.07-1.33-3.78-1.64-4.71l-0.25,0.08l3.09,9.32l-23.92,0.02l-0.01-10.53l-0.01-17.63l15.03,0.01v2.17l2.38,6.71l0.51-0.21
			l-2.11-5.8L277,369.2L277,369.2z M288.07,414.73L288.07,414.73C288.05,414.8,288.04,414.81,288.07,414.73z"/>
		<polygon class="st1" points="275.99,369.63 275.99,363.1 288.76,363.1 287.33,359.38 287.04,359.49 288.24,362.4 246.37,362.64 
			246.36,361.6 286.69,361.36 285.67,358.89 287.92,358.05 290.28,364.14 277.03,364.14 277.03,369.63 		"/>
		<polygon class="st1" points="243.98,361.63 243.98,312.87 245.02,312.87 245.02,361.63 		"/>
		<polygon class="st1" points="245.34,361.63 245.34,312.87 246.38,312.87 246.38,361.63 		"/>
		<polygon class="st1" points="244.06,306.86 244.06,267.24 245.11,267.24 245.11,306.86 		"/>
		<polygon class="st1" points="246.6,267.24 246.6,269.37 257.44,269.37 265.63,294.18 263.48,294.95 255.69,271.66 246.6,271.66 
			246.6,306.86 245.56,306.86 245.56,270.62 256.44,270.62 264.13,293.61 264.32,293.54 256.69,270.42 245.56,270.42 245.56,267.24 
					"/>
		<polygon class="st1" points="246.57,310.14 265.39,310.14 265.39,323.05 246.21,323.05 246.21,322.01 264.34,322.01 
			264.34,311.18 246.57,311.18 		"/>
		<polygon class="st1" points="265.32,322.27 267.4,325.9 272.76,323.22 265.96,302.84 267.66,302.27 267.99,303.26 267.28,303.49 
			274.03,323.75 266.99,327.27 264.42,322.79 		"/>
		<path class="st1" d="M268.32,302.6l7.27,21.85l-6.97,3.52l10.96,19.25l3.56-1.52l1.81,4.7l-2.16,0.72l-0.89-2.36l-3.36,1.39
			l-15.57-27.37l0.91-0.51L279,348.84l3.5-1.45l0.92,2.43l0.17-0.06l-1.03-2.68l-3.43,1.46c-3.99-7-7.97-14.01-11.96-21.01l7.14-3.6
			l-6.99-21L268.32,302.6L268.32,302.6z"/>
		<polygon class="st2" points="316.32,313.2 316.23,342.18 326.04,342.18 326.04,313.2 		"/>
		<path class="st1" d="M316.84,313.73l-0.09,27.93h8.77v-27.93H316.84L316.84,313.73z M315.71,342.18l0.1-29.5h10.76v30.02H315.7
			L315.71,342.18L315.71,342.18z"/>
		<polygon class="st1" points="411.98,282.15 402.86,282.19 402.86,281.15 411.97,281.11 		"/>
		<polygon class="st1" points="412.56,267.24 412.56,291.8 415.57,291.8 415.57,306.86 414.53,306.86 414.53,292.85 411.51,292.85 
			411.51,267.24 		"/>
		<polygon class="st1" points="410.77,307.93 409.83,307.93 409.83,362.45 313.8,362.45 313.8,363.08 410.77,363.08 410.77,364.13 
			312.76,364.13 312.76,361.41 408.78,361.41 408.78,306.88 410.77,306.88 		"/>
		<polygon class="st1" points="410.24,361.69 410.24,312.87 411.29,312.87 411.29,361.69 		"/>
		<path class="st1" d="M327,419.39l42.06,0.02v2.83l-44.14-0.21l1.81-2.65L327,419.39L327,419.39z M368.01,420.45l-40.74-0.02
			l-0.4,0.58l41.13,0.19V420.45L368.01,420.45z"/>
		<path class="st1" d="M394.4,384.23l-17.54,0.09v0.65h6.06v35.53h-4.97v0.55h5.42v-5.07h30.76v4.77h31.41l11.36-30.95l-0.37-3.67
			l-1.6-1.6l-1.9-0.9h-16.55v0.84l17.12-0.1l1.85,1.15l1.02,2.15l-0.12,1.39c-3.69,10.31-7.39,20.62-11.08,30.93
			c-10.14,0-20.27,0-30.41,0v-35.43h11.23v-0.65h-21.22v0.74h9.44v30.86h-31.06v-30.66h11.13L394.4,384.23L394.4,384.23z
			 M376.34,383.28l19.11-0.1v2.73h-11.13v28.57h28.97v-28.77h-9.44v-2.83h23.31v2.73h-11.23v33.34h28.63l10.78-30.09l0.08-0.99
			l-0.77-1.62l-1.33-0.83l-17.86,0.1v-2.93h17.83l2.28,1.08l1.98,1.98l0.43,4.28c-3.9,10.62-7.8,21.24-11.7,31.86h-33.19v-4.77
			h-28.67v5.07h-7.5v-2.63h4.97v-33.44h-6.06v-2.73L376.34,383.28L376.34,383.28z"/>
		<polygon class="st1" points="493.8,425.02 489.24,425.02 489.24,422.47 493.8,422.47 493.8,423.52 490.28,423.52 490.28,423.98 
			493.8,423.98 		"/>
		<path class="st1" d="M495.44,413.21h-19.75v9.26h5.56v2.55h-9.44l-1.6-0.8l-1.41-1.67l-0.52-1.83l0.14-1.23
			c1.41-3.1,2.82-6.2,4.23-9.3h15.91v-20.44l0,0l0.05-8.28h29.75v-13.12h1.99v4.37l31.85-0.07l0.07-7.38h2.76v10.14h-34.17v8.81
			h-25.22v5.05h2.01v18.86h-1.04v-17.82h-2.01v-7.13h25.22v-8.81h34.17v-8.05h-0.68l-0.07,7.38c-11.28,0.02-22.55,0.05-33.83,0.07
			v8.75h-29.76l-0.04,7.24h0v21.48h-16.28l-3.88,8.53l-0.1,0.86l0.41,1.42l1.13,1.34l1.18,0.59h8.16v-0.46h-5.56v-11.35h20.79
			V413.21z"/>
		<polygon class="st1" points="497.92,414.14 497.92,415.46 501.34,415.21 501.42,417.84 498.58,418.05 498.5,417.01 500.35,416.87 
			500.33,416.33 496.87,416.58 496.87,414.14 		"/>
		<path class="st1" d="M411.52,261.23l0.14-29.31c5.09-1.19,10.17-2.38,15.26-3.56l0.9,2.47l-13.64,3.14l-0.01,27.27h-1.04
			l0.01-28.1l13.29-3.06l-0.18-0.49l-13.56,3.17l-0.13,28.49L411.52,261.23z"/>
		<path class="st1" d="M414.16,267.24v7.93h2.75l-0.23,2.54l-2.59-0.07v12.7h10.96V277.9h-2.22v-2.61h7.35l-0.15,2.61h-2.46v12.34
			h10.77v-12.16h-2.31v-2.8h6.09v-1.94h2.71v1.94h19.91v-10.4h-20.1v2.22h-2.8v-8.52h2.8v3.79h20v-12.8h-20.1v2.86h-2.71v-9.91h2.8
			v3.97h20v-13.57l-20-5v8.44h-2.8v-8.73l-5.88,1.34l-1.07-2.44c2.55-0.61,5.1-1.23,7.66-1.84c8.45,2.14,16.9,4.27,25.35,6.41
			l-0.09,32.66h8.49v2.71h-8.59v83.86h10.31v2.72h-4.6v14.93h-9.57v-2.49l0.79-0.21v-65.3h-3.15v-2.05h3.14v-8.05h-1.45l-0.59-2.19
			l2.08-0.03v-9.58h-18.74v9.71h11.38v2.48h-11.38v7.56h11.56V300h-11.47v14.9h12.18v1.94h-2.42v6.99h-2.21v-4.39h-11.05v11.05
			h11.23v-0.68l1.93-0.52v9.82l-2.1-0.18v-3.99h-10.96v11.14h11.05v-1.16h2.39v3.37h-31.32v-2.62l2.21-0.59l0.24,0.89h10.81v-11.02
			h-10.78v4.39h-2.57v-9.47h2.73l-0.22,0.82h11.11v-11.33h-11.14v4.39h-2.39v-6.81h-2.96v-2.39h10.66v-7.38h-9.85v-2.48h9.76v-11.95
			h-15.44v14.12h-1.04V291.7h17.53v14.03h-9.76v0.39h9.85v9.47h-10.66v0.3h2.96v6.81h0.3v-4.39h13.23v13.42h-13.52l0.22-0.82h-0.32
			v7.38h0.48v-4.39h12.87v13.11h-12.65l-0.18-0.66l-0.43,0.12v0.78h29.24v-1.28h-0.3v1.16H441.6V333.9h13.05v4.07l0.02,0v-6.43
			h-13.15V318.4h13.14v4.39h0.12v-6.84h-9.76v-16.99h11.47v-0.12h-11.56v-9.64h11.38v-0.39h-11.38v-11.79h20.83v11.65l-1.77,0.02
			l0.03,0.13h1.69v10.1h0v67.15l-0.79,0.21v0.65h7.48V352h4.6v-0.63h-10.31v-85.95h8.59v-0.62h-8.49l0.09-32.89l-24.32-6.15
			l-6.19,1.49l0.22,0.51l6.31-1.43v8.99h0.71v-8.73c7.36,1.84,14.73,3.68,22.09,5.52v15.42h-22.09v-3.97h-0.71v7.82h0.62v-2.86
			h22.19v14.89h-22.09v-3.79h-0.71v6.43h0.71v-2.22h22.19v12.49h-22v-1.94h-0.62v1.94h-6.09v0.71h2.31v14.25h-12.86v-14.43h2.52
			l0.03-0.52h-5.2v0.52h2.22v14.52h-13.05v-14.81l2.68,0.07l0.04-0.43h-2.65v-8.98L414.16,267.24L414.16,267.24z"/>
		<path class="st1" d="M565.17,191.61h-10.75v0.58h9.85v40.59l-26.86-6.38l-0.07,0.44l27.83,6.79V191.61z M553.9,190.56h12.31v44.4
			c-10.02-2.44-20.03-4.89-30.05-7.33l0.4-2.5l26.67,6.34v-38.23h-9.85v-2.67H553.9z"/>
		<polygon class="st1" points="501.36,174.91 514.51,174.91 514.51,177.51 501.36,177.51 501.36,176.47 513.47,176.47 
			513.47,175.96 501.36,175.96 		"/>
		<polygon class="st1" points="544.92,125.37 544.92,176.06 523.55,176.06 523.55,176.47 545.43,176.47 545.43,125.37 
			546.48,125.37 546.48,177.51 522.5,177.51 522.5,175.01 543.88,175.01 543.88,125.37 		"/>
		<path class="st1" d="M506.58,190.49l38.69,0.08v2.9h-36.54v25.21l20.19,4.75l-0.52,2.49l-22.33-5.18v-30.26L506.58,190.49z
			 M544.23,191.6l-37.13-0.08v28.39l20.49,4.75l0.1-0.46l-20-4.71v-27.08h36.54L544.23,191.6L544.23,191.6z"/>
		<path class="st1" d="M586.88,264.53h-42.54v-14.53l-12.92-3.18l-0.15,0.6l11.91,3.18v13.74h-45.71v-15.06l1.03-2
			c0.44-0.66,0.88-1.32,1.32-1.98l1.62-1.28l1.75-0.92c0.64-0.25,1.28-0.5,1.92-0.75l1.79-0.17c0.58,0.03,1.17,0.06,1.75,0.08
			l12.8,3.08l0.11-0.36l-12.41-3.2l-2.29-0.08l-1.92,0.23l-1.49,0.45l-1.45,0.84l-1.25,0.86l-1.13,0.9l-0.91,1.06l-0.83,1.21
			l-0.49,1.13v16.12h-7.25v0.79h7.25v9.09h0.15v-9.17h22.17v30.62h-22.25v-8.05h-0.31v15.3h0.39v-6.3h22.17v23.05h-22.17v-3.19
			h-0.47v12.59h0.47v-8.69h22.17v30.54h-22.17v-8.45h-0.47v8.69h-4.94v0.71h28.77v-86.5h30.47v69.62h-15.63v0.98h15.49v15.46h-15.36
			V352h17.24v2.96h0.71v-3.1h37.99V313.1h1.04v39.81h-37.99v3.1h-2.8v-2.96h-17.24v-2.53h15.36v-13.37h-15.49v-3.07h15.63v-67.53
			h-28.38v86.5h-30.86v-2.8h4.94v-8.69h2.56v8.45h20.08v-28.45h-20.08v8.69h-2.56v-14.68h2.56v3.19h20.08v-20.96h-20.08v6.3h-2.48
			v-17.39h2.4v8.05h20.16v-28.53h-20.08v9.17h-2.24v-9.09h-7.25v-2.88h7.25v-15.29l0.62-1.42l0.92-1.34l1-1.17l1.24-0.99l0.03-0.02
			l1.28-0.88l0.03-0.02l1.57-0.91l1.7-0.51c0.69-0.08,1.38-0.17,2.07-0.25c0.83,0.03,1.66,0.06,2.5,0.08
			c4.52,1.17,9.05,2.33,13.57,3.5l-0.69,2.35l-13.66-3.29l-1.59-0.08l-1.56,0.15l-1.75,0.69l-1.6,0.84l-1.41,1.11l-1.23,1.84
			l-0.86,1.68v13.78h43.62v-11.9l-12.12-3.23l0.65-2.6c4.91,1.21,9.81,2.42,14.72,3.63v14.31h41.5L586.88,264.53L586.88,264.53z"/>
		<polygon class="st1" points="591.82,307.09 591.82,267.48 592.86,267.48 592.86,307.09 		"/>
		<path class="st1" d="M706.38,310.39h0.66v-22.15h-0.66V310.39z M707.57,311.43h-2.23V287.2h2.75v24.24H707.57z"/>
		<path class="st1" d="M706.55,277.82h0.49v-3.56h-35.79v0.66h35.3V277.82L706.55,277.82z M707.57,278.86h-2.06v-2.9h-35.3v-2.75
			h37.88v5.65H707.57z"/>
		<polygon class="st1" points="661.87,260.94 681.66,260.94 681.66,264.69 691.53,264.69 691.53,258.21 694.45,258.21 
			694.45,273.74 693.4,273.74 693.4,259.25 692.57,259.25 692.57,265.73 680.61,265.73 680.61,261.98 661.87,261.98 		"/>
		<polygon class="st1" points="677.2,273.74 677.2,268.97 670.04,268.97 670.04,263.52 661.34,263.52 661.34,261.46 662.39,261.46 
			662.39,262.47 671.09,262.47 671.09,267.93 678.25,267.93 678.25,273.74 		"/>
		<path class="st1" d="M660.9,244.76l0.08,1h6.5v-7.84c13.14,0,26.27,0,39.41,0v8.19h3.05v-0.83h-2.39v-28.65h-0.66v20.63
			c-13.19,0-26.39,0-39.58,0v-34.44h-0.49l0,41.95H660.9z M659.98,246.32l-0.22-2.61h6.01v-41.95h2.58v34.44h37.49v-20.63h2.75
			v28.65h2.39v2.92h-5.14v-8.19h-37.32v7.84h-8.51L659.98,246.32L659.98,246.32z"/>
		<polygon class="st1" points="768.05,245.27 720.02,245.27 720.02,245.93 768.05,245.93 768.05,246.97 718.98,246.97 
			718.98,244.22 768.05,244.22 		"/>
		<path class="st1" d="M425.95,367.2l-0.03-1.89h29.99v2.4h-29.94L425.95,367.2z M426.97,366.35l0.01,0.32h27.88v-0.32H426.97
			L426.97,366.35z"/>
		<polygon class="st2" points="539.35,120.69 537.89,122.01 541.53,125.37 554.13,125.38 554.13,120.72 541.77,120.69 		"/>
		<path class="st1" d="M539.45,120.95l-1.17,1.06l3.36,3.1l12.23,0.01l0-4.14l-12.1-0.03v0L539.45,120.95L539.45,120.95z
			 M537.72,121.81l1.53-1.39h2.53v0l12.62,0.03l0,5.18c-4.32-0.01-8.64-0.01-12.96-0.01l-3.92-3.62L537.72,121.81L537.72,121.81z"/>
		<polygon class="st2" points="567.77,125.37 577.09,125.38 577.1,120.72 567.78,120.69 		"/>
		<path class="st1" d="M568.03,125.11l8.79,0.01l0.01-4.15l-8.81-0.02L568.03,125.11z M577.09,125.64l-9.57-0.01l0-5.2l9.85,0.02
			l-0.02,5.19L577.09,125.64z"/>
		<polygon class="st2" points="584.6,125.37 598.23,125.38 598.25,120.72 584.6,120.69 		"/>
		<path class="st1" d="M584.86,125.11l13.11,0.01l0.02-4.15l-13.13-0.02L584.86,125.11L584.86,125.11z M598.23,125.64l-13.89-0.01
			l0-5.2c4.72,0.01,9.45,0.02,14.17,0.02l-0.03,5.19L598.23,125.64z"/>
		<polygon class="st2" points="605.45,125.37 628.09,125.38 628.13,120.72 605.45,120.69 		"/>
		<path class="st1" d="M605.71,125.11l22.12,0.01l0.04-4.15l-22.15-0.02L605.71,125.11z M628.09,125.64l-22.9-0.01l0-5.2
			c7.73,0.01,15.46,0.02,23.19,0.02l-0.04,5.19H628.09L628.09,125.64z"/>
		<polygon class="st2" points="635.62,125.37 649.25,125.38 649.27,120.72 635.62,120.69 		"/>
		<path class="st1" d="M635.88,125.11l13.11,0.01l0.02-4.15l-13.13-0.02L635.88,125.11L635.88,125.11z M649.25,125.64l-13.89-0.01
			l0-5.2c4.72,0.01,9.45,0.02,14.17,0.02l-0.03,5.19L649.25,125.64z"/>
		<polygon class="st2" points="662.81,125.37 683.75,125.38 683.79,120.72 662.81,120.69 		"/>
		<path class="st1" d="M663.07,125.11l20.43,0.01l0.03-4.15l-20.46-0.02L663.07,125.11z M683.75,125.64l-21.21-0.01l0-5.2l21.5,0.02
			l-0.04,5.19H683.75L683.75,125.64z"/>
		<polygon class="st2" points="703.77,125.37 718.27,125.38 718.3,120.72 703.77,120.69 		"/>
		<path class="st1" d="M704.03,125.11l13.98,0.01l0.02-4.15l-14-0.02L704.03,125.11z M718.27,125.64l-14.76-0.01l0-5.2l15.04,0.02
			l-0.03,5.19L718.27,125.64L718.27,125.64z"/>
		<polygon class="st2" points="690.68,125.37 696.78,125.38 696.79,120.72 690.68,120.69 		"/>
		<path class="st1" d="M690.94,125.11l5.58,0.01l0.01-4.15l-5.59-0.02L690.94,125.11z M696.78,125.64l-6.36-0.01l0-5.2l6.64,0.02
			l-0.01,5.19L696.78,125.64z"/>
		<polygon class="st2" points="731.31,125.37 746.65,125.38 746.68,120.72 731.31,120.69 		"/>
		<path class="st1" d="M731.57,125.11l14.83,0.01l0.02-4.15l-14.85-0.02L731.57,125.11L731.57,125.11z M746.65,125.64l-15.61-0.01
			l0-5.2c5.3,0.01,10.6,0.02,15.89,0.02l-0.03,5.19L746.65,125.64L746.65,125.64z"/>
		<polygon class="st2" points="759.94,125.37 772.8,125.38 772.82,120.72 759.94,120.69 		"/>
		<path class="st1" d="M760.2,125.11l12.34,0.01l0.02-4.15l-12.35-0.02L760.2,125.11z M772.8,125.64l-13.11-0.01l0-5.2
			c4.47,0.01,8.93,0.02,13.4,0.02l-0.03,5.19L772.8,125.64L772.8,125.64z"/>
		<polygon class="st2" points="768.05,128.97 772.78,128.98 772.79,125.64 768.05,125.62 		"/>
		<path class="st1" d="M768.31,128.71l4.21,0.01l0.01-2.83l-4.22-0.01L768.31,128.71z M772.78,129.24l-4.99-0.01l0-3.87l5.26,0.02
			l-0.01,3.87L772.78,129.24z"/>
		<polygon class="st2" points="768.05,141.14 772.78,141.15 772.79,136.23 768.05,136.21 		"/>
		<path class="st1" d="M768.31,140.88l4.21,0.01l0.01-4.4l-4.22-0.02L768.31,140.88z M772.78,141.41l-4.99-0.01l0-5.45l5.26,0.03
			l-0.01,5.44C773.04,141.41,772.78,141.41,772.78,141.41z"/>
		<polygon class="st2" points="768.05,154.55 772.78,154.56 772.79,148.64 768.05,148.61 		"/>
		<path class="st1" d="M768.31,154.29l4.21,0.01l0.01-5.4l-4.22-0.02L768.31,154.29z M772.78,154.82l-4.99-0.02l0-6.45l5.26,0.03
			l-0.01,6.44L772.78,154.82L772.78,154.82z"/>
		<polygon class="st2" points="768.05,179.82 772.78,179.85 772.79,168.22 768.05,168.17 		"/>
		<path class="st1" d="M768.31,179.56l4.21,0.03l0.01-11.11l-4.22-0.05L768.31,179.56L768.31,179.56z M772.78,180.11l-4.99-0.03
			c0-4.06,0-8.11,0-12.17l5.26,0.06c0,4.05-0.01,8.1-0.01,12.15L772.78,180.11z"/>
		<polygon class="st2" points="768.05,208.87 772.78,208.92 772.79,187.17 768.05,187.06 		"/>
		<path class="st1" d="M768.31,208.61l4.21,0.05l0.01-21.24l-4.22-0.09L768.31,208.61L768.31,208.61z M772.77,209.18l-4.99-0.06
			c0-7.44,0-14.88,0-22.33l5.26,0.11l-0.01,22.28L772.77,209.18z"/>
		<polygon class="st2" points="768.05,229.79 772.78,229.81 772.79,222.56 768.05,222.52 		"/>
		<path class="st1" d="M768.31,229.53l4.21,0.02l0.01-6.73l-4.22-0.03L768.31,229.53z M772.78,230.07l-4.99-0.02l0-7.79l5.26,0.04
			l-0.01,7.77L772.78,230.07L772.78,230.07z"/>
		<polygon class="st2" points="768.05,249.22 772.78,249.25 772.79,237.05 768.05,236.99 		"/>
		<path class="st1" d="M768.31,248.96l4.21,0.03l0.01-11.68l-4.22-0.05L768.31,248.96z M772.78,249.51l-4.99-0.03l0-12.75l5.26,0.06
			l-0.01,12.72L772.78,249.51z"/>
		<polygon class="st2" points="768.05,265.69 772.78,265.71 772.79,256.42 768.05,256.38 		"/>
		<path class="st1" d="M768.31,265.43l4.21,0.02l0.01-8.77l-4.22-0.04L768.31,265.43z M772.78,265.97l-4.99-0.03
			c0-3.28,0-6.55,0-9.83l5.26,0.05l-0.01,9.81L772.78,265.97z"/>
		<polygon class="st2" points="768.05,293.74 772.78,293.77 772.79,279.34 768.05,279.27 		"/>
		<path class="st1" d="M768.31,293.48l4.21,0.03l0.01-13.91l-4.22-0.06L768.31,293.48L768.31,293.48z M772.77,294.03l-4.99-0.04
			c0-4.99,0-9.99,0-14.98l5.26,0.08l-0.01,14.95L772.77,294.03L772.77,294.03z"/>
		<polygon class="st2" points="768.05,313.46 772.78,313.49 772.79,300.95 768.05,300.89 		"/>
		<path class="st1" d="M768.31,313.2l4.21,0.03l0.01-12.03l-4.22-0.05L768.31,313.2z M772.78,313.75l-4.99-0.03
			c0-4.37,0-8.73,0-13.1l5.26,0.07c0,4.36-0.01,8.71-0.01,13.07L772.78,313.75z"/>
		<polygon class="st2" points="768.05,341.78 772.78,341.83 772.79,321.04 768.05,320.95 		"/>
		<path class="st1" d="M768.31,341.52l4.21,0.05l0.01-20.27l-4.22-0.09L768.31,341.52z M772.77,342.09l-4.99-0.06
			c0-7.12,0-14.24,0-21.36l5.26,0.11c0,7.1-0.01,14.2-0.01,21.31L772.77,342.09L772.77,342.09z"/>
		<polygon class="st2" points="768.05,356.67 772.78,356.69 772.79,349.21 768.05,349.18 		"/>
		<path class="st1" d="M768.31,356.41l4.21,0.02l0.01-6.96l-4.22-0.03L768.31,356.41z M772.78,356.95l-4.99-0.02l0-8.02l5.26,0.04
			l-0.01,8L772.78,356.95z"/>
		<polygon class="st2" points="768.05,390.94 772.78,391 772.79,370.43 768.05,370.33 		"/>
		<path class="st1" d="M768.31,390.69l4.21,0.05l0.01-20.05l-4.22-0.09L768.31,390.69z M772.77,391.26l-4.99-0.06
			c0-7.04,0-14.09,0-21.13l5.26,0.11c0,7.03-0.01,14.06-0.01,21.08L772.77,391.26L772.77,391.26z"/>
		<polygon class="st2" points="763.28,388.35 763.37,391.93 772.78,391.25 772.27,386.53 		"/>
		<path class="st1" d="M763.54,388.57l0.08,3.09l8.87-0.65l-0.45-4.17L763.54,388.57L763.54,388.57z M763.11,391.94l-0.09-3.8
			c3.16-0.64,6.32-1.29,9.48-1.93l0.57,5.27l-9.95,0.73L763.11,391.94z"/>
		<polygon class="st2" points="493.8,482.72 498.53,482.89 498.54,416.48 493.8,416.17 		"/>
		<path class="st1" d="M494.06,482.47l4.21,0.15l0.01-65.9l-4.22-0.28L494.06,482.47z M498.52,483.15l-4.98-0.18
			c0-22.36,0-44.72,0-67.08l5.26,0.35c0,22.31-0.01,44.62-0.01,66.92L498.52,483.15L498.52,483.15z"/>
		<polygon class="st2" points="480.89,493.41 493.63,493.42 493.65,488.76 480.89,488.73 		"/>
		<path class="st1" d="M481.15,493.15l12.23,0.01l0.02-4.15L481.15,489L481.15,493.15z M493.63,493.68l-13.01-0.01l0-5.2l13.29,0.02
			l-0.03,5.19L493.63,493.68L493.63,493.68z"/>
		<polygon class="st2" points="450.18,493.41 468.75,493.42 468.78,488.76 450.18,488.73 		"/>
		<path class="st1" d="M450.44,493.15l18.05,0.01l0.03-4.15L450.44,489L450.44,493.15L450.44,493.15z M468.75,493.68l-18.83-0.01
			l0-5.2c6.37,0.01,12.75,0.02,19.12,0.02l-0.04,5.19L468.75,493.68L468.75,493.68z"/>
		<polygon class="st2" points="419.46,493.41 438.15,493.42 438.18,488.76 419.46,488.73 		"/>
		<path class="st1" d="M419.72,493.15l18.17,0.01l0.03-4.15l-18.2-0.02L419.72,493.15L419.72,493.15z M438.15,493.68l-18.95-0.01
			l0-5.2l19.24,0.02l-0.04,5.19L438.15,493.68L438.15,493.68z"/>
		<polygon class="st2" points="391.58,493.41 407.43,493.42 407.46,488.76 391.58,488.73 		"/>
		<path class="st1" d="M391.84,493.15l15.33,0.01l0.02-4.15L391.84,489L391.84,493.15L391.84,493.15z M407.43,493.68l-16.11-0.01
			l0-5.2c5.47,0.01,10.93,0.02,16.4,0.02l-0.03,5.19L407.43,493.68z"/>
		<polygon class="st2" points="341.84,491.59 354.66,491.6 354.68,486.94 341.84,486.92 		"/>
		<path class="st1" d="M342.1,491.33l12.3,0.01l0.02-4.15l-12.32-0.02L342.1,491.33z M354.66,491.86l-13.08-0.01l0-5.2l13.36,0.02
			l-0.03,5.19L354.66,491.86z"/>
		<polygon class="st2" points="366.61,491.59 378.62,491.6 378.64,486.94 366.61,486.92 		"/>
		<path class="st1" d="M366.87,491.33l11.49,0.01l0.02-4.15l-11.51-0.02L366.87,491.33z M378.62,491.86l-12.27-0.01l0-5.2
			c4.18,0.01,8.37,0.02,12.55,0.02l-0.02,5.19L378.62,491.86z"/>
		<polygon class="st2" points="319.3,491.59 329.59,491.6 329.61,486.94 319.3,486.92 		"/>
		<path class="st1" d="M319.56,491.33l9.77,0.01l0.02-4.15l-9.79-0.02L319.56,491.33z M329.59,491.86l-10.55-0.01l0-5.2l10.83,0.02
			l-0.02,5.19L329.59,491.86L329.59,491.86z"/>
		<polygon class="st2" points="373.89,493.41 379.54,493.42 379.55,488.76 373.89,488.73 		"/>
		<path class="st1" d="M374.15,493.15l5.13,0.01l0.01-4.15l-5.14-0.02L374.15,493.15L374.15,493.15z M379.54,493.68l-5.91-0.01
			l0-5.2l6.18,0.02l-0.01,5.19L379.54,493.68z"/>
		<polygon class="st2" points="316.75,493.41 323.72,493.42 323.73,488.76 316.75,488.73 		"/>
		<path class="st1" d="M317.01,493.15l6.45,0.01l0.01-4.15l-6.46-0.02L317.01,493.15L317.01,493.15z M323.72,493.68l-7.23-0.01
			l0-5.2l7.5,0.02l-0.01,5.19L323.72,493.68L323.72,493.68z"/>
		<polygon class="st2" points="291.92,493.41 304.38,493.42 304.4,488.76 291.92,488.73 		"/>
		<path class="st1" d="M292.18,493.15l11.94,0.01l0.02-4.15L292.18,489L292.18,493.15z M304.38,493.68l-12.72-0.01l0-5.2l13,0.02
			l-0.02,5.19L304.38,493.68L304.38,493.68z"/>
		<polygon class="st2" points="267.24,493.41 279.68,493.42 279.7,488.76 267.24,488.73 		"/>
		<path class="st1" d="M267.5,493.15l11.93,0.01l0.02-4.15L267.5,489L267.5,493.15L267.5,493.15z M279.68,493.68l-12.71-0.01l0-5.2
			l12.99,0.02l-0.02,5.19L279.68,493.68L279.68,493.68z"/>
		<polygon class="st2" points="247.83,493.41 255.02,493.42 255.03,488.76 247.83,488.73 		"/>
		<path class="st1" d="M248.09,493.15l6.67,0.01l0.01-4.15l-6.68-0.02L248.09,493.15L248.09,493.15z M255.02,493.68l-7.45-0.01
			l0-5.2l7.72,0.02l-0.01,5.19L255.02,493.68L255.02,493.68z"/>
		<polygon class="st2" points="242.1,491.58 252.89,491.59 252.91,486.93 242.1,486.9 		"/>
		<path class="st1" d="M242.36,491.32l10.27,0.01l0.02-4.15l-10.28-0.02L242.36,491.32z M252.89,491.85l-11.05-0.01l0-5.2
			l11.32,0.02l-0.02,5.19L252.89,491.85z"/>
		<polygon class="st2" points="217.27,491.58 230.03,491.59 230.05,486.93 217.27,486.9 		"/>
		<path class="st1" d="M217.53,491.32l12.24,0.01l0.02-4.15l-12.26-0.02L217.53,491.32z M230.03,491.85l-13.02-0.01l0-5.2
			c4.43,0.01,8.87,0.02,13.3,0.02l-0.02,5.19L230.03,491.85L230.03,491.85z"/>
		<polygon class="st2" points="194.56,491.58 205.06,491.59 205.08,486.93 194.57,486.9 		"/>
		<path class="st1" d="M194.82,491.32l9.97,0.01l0.02-4.15l-9.99-0.02L194.82,491.32z M205.06,491.85l-10.75-0.01l0-5.2l11.03,0.02
			l-0.02,5.19L205.06,491.85z"/>
		<polygon class="st2" points="192.01,493.41 199.35,493.42 199.36,488.76 192.01,488.73 		"/>
		<path class="st1" d="M192.27,493.15l6.82,0.01l0.01-4.15l-6.83-0.02L192.27,493.15L192.27,493.15z M199.35,493.68l-7.6-0.01l0-5.2
			l7.87,0.02l-0.01,5.19L199.35,493.68L199.35,493.68z"/>
		<polygon class="st2" points="164.32,493.41 180.07,493.42 180.1,488.76 164.32,488.73 		"/>
		<path class="st1" d="M164.58,493.15l15.23,0.01l0.02-4.15L164.58,489L164.58,493.15L164.58,493.15z M180.07,493.68l-16.01-0.01
			l0-5.2c5.43,0.01,10.86,0.02,16.29,0.02l-0.03,5.19L180.07,493.68L180.07,493.68z"/>
		<polygon class="st2" points="133.75,493.41 152.12,493.42 152.15,488.76 133.76,488.73 		"/>
		<path class="st1" d="M134.01,493.15l17.85,0.01l0.03-4.15L134.02,489L134.01,493.15L134.01,493.15z M152.12,493.68l-18.63-0.01
			l0-5.2c6.31,0.01,12.61,0.02,18.92,0.02l-0.04,5.19L152.12,493.68z"/>
		<polygon class="st2" points="103.28,493.41 121.65,493.42 121.68,488.76 103.29,488.73 		"/>
		<path class="st1" d="M103.54,493.15l17.85,0.01l0.03-4.15L103.55,489C103.55,489,103.54,493.15,103.54,493.15z M121.65,493.68
			l-18.63-0.01l0-5.2c6.31,0.01,12.61,0.02,18.92,0.02l-0.04,5.19L121.65,493.68L121.65,493.68z"/>
		<polygon class="st2" points="78.1,493.41 91.63,493.42 91.65,488.76 78.1,488.73 		"/>
		<path class="st1" d="M78.36,493.15l13.01,0.01l0.02-4.15L78.36,489C78.36,489,78.36,493.15,78.36,493.15z M91.63,493.68
			l-13.79-0.01l0-5.2c4.69,0.01,9.38,0.02,14.07,0.02l-0.03,5.19L91.63,493.68L91.63,493.68z"/>
		<rect x="67.9" y="482.7" class="st2" width="10.51" height="13.76"/>
		<rect x="155.69" y="452.93" class="st2" width="5.75" height="6"/>
		<rect x="240.61" y="452.68" class="st2" width="5.75" height="6"/>
		<rect x="155.57" y="361.63" class="st2" width="5.75" height="6"/>
		<rect x="70.28" y="361.63" class="st2" width="5.75" height="6"/>
		<rect x="240.61" y="361.63" class="st2" width="5.75" height="6"/>
		<rect x="325.74" y="452.82" class="st2" width="5.75" height="6"/>
		<rect x="410.77" y="452.82" class="st2" width="5.75" height="6"/>
		<rect x="325.62" y="361.89" class="st2" width="5.75" height="6"/>
		<rect x="410.77" y="361.69" class="st2" width="5.75" height="6"/>
		<rect x="495.44" y="408.14" class="st2" width="5.75" height="6"/>
		<rect x="493.54" y="482.89" class="st2" width="10.43" height="13.47"/>
		<rect x="586.93" y="399.53" class="st2" width="5.75" height="6"/>
		<rect x="586.93" y="399.53" class="st2" width="5.75" height="6"/>
		<rect x="672.06" y="390.86" class="st2" width="5.75" height="6"/>
		<rect x="672.06" y="352.78" class="st2" width="5.75" height="6"/>
		<rect x="763.05" y="382.2" class="st2" width="5.75" height="6"/>
		<rect x="763.05" y="306.82" class="st2" width="5.75" height="6"/>
		<rect x="738.74" y="261.48" class="st2" width="5.75" height="6"/>
		<rect x="672.06" y="261.48" class="st2" width="5.75" height="6"/>
		<rect x="586.88" y="261.48" class="st2" width="5.75" height="6"/>
		<rect x="586.88" y="307.09" class="st2" width="5.75" height="6"/>
		<rect x="586.88" y="171.62" class="st2" width="5.75" height="6"/>
		<rect x="672.1" y="171.62" class="st2" width="5.75" height="6"/>
		<rect x="737.65" y="171.62" class="st2" width="5.75" height="6"/>
		<rect x="737.65" y="124.1" class="st2" width="5.75" height="6"/>
		<rect x="672.04" y="124.1" class="st2" width="5.75" height="6"/>
		<rect x="586.78" y="124.1" class="st2" width="5.75" height="6"/>
		<rect x="495.61" y="124.1" class="st2" width="5.75" height="6"/>
		<rect x="495.61" y="171.38" class="st2" width="5.75" height="6"/>
		<rect x="410.77" y="306.86" class="st2" width="5.75" height="6"/>
		<rect x="410.77" y="261.23" class="st2" width="5.75" height="6"/>
		<rect x="325.59" y="261.23" class="st2" width="5.75" height="6"/>
		<rect x="240.81" y="261.23" class="st2" width="5.75" height="6"/>
		<rect x="240.81" y="306.86" class="st2" width="5.75" height="6"/>
		<rect x="325.59" y="306.86" class="st2" width="5.75" height="6"/>
	</g>
</g>
</svg>
